<?xml version="1.0" encoding="UTF-8"?>
<svg id="b" data-name="Layer 2" xmlns="http://www.w3.org/2000/svg" width="619.235" height="1000" viewBox="0 0 619.235 1000">
  <g id="c" data-name="Layer 2">
    <path d="m0,0v683.551c63.569,19.619,135.939,54.844,206.389,117.608,190.855,176.764,228.001,179.967,270.27,198.824.087.039,142.577,0,142.577,0V0H0Zm440.136,31.567c-38.985,38.243-79.498,81.477-119.905,129.823-97.748,13.109-191.244,32.404-288.664,56.592V31.567h408.569ZM31.567,324.433c65.191-11.268,124.506-16.969,180.865-20.153-73.418,109.542-134.053,223.248-180.865,352.28v-332.126Zm556.101,644.006l-104.383.012s-5.728-2.39-8.513-3.535c-16.053-6.599-33.881-13.946-63.235-33.497-38.225-211.199-29.77-426.453,21.595-621.801,52.829,4.706,104.498,13.555,154.536,25.785v633.036Zm0-719.178c-70.047-8.268-133.652-10.19-188.719-9.991-84.813,179.807-125.745,382.295-132.122,574.357-12.221-11.013-25.147-22.809-38.988-35.628l-.224-.207-.227-.203c-30.73-27.378-63.422-51.072-97.772-71.149,35.449-144.21,95.857-304.249,189.635-465.343-109.635,6.93-199.489,20.571-287.684,40.035v-41.601c94.474-21.842,203.325-40.638,318.756-49.742,30.631-52.259,81.24-116.827,116.971-158.221h54.378c-29.242,38.944-63.706,88.664-95.788,153.221,52.151-2.272,106.215-3.291,161.783-1.646v66.118Zm-95.208-106.566c18.38-40.562,38.2-76.623,60.805-111.127h34.403v105.751c-31.387,1.218-63.189,3.052-95.208,5.375Z" fill="#344563"/>
    <path d="m0,723.569v276.413h383.71s-56.917-23.981-206.93-160.419C109.392,778.274,52.943,741.177,0,723.569Z" fill="#344563"/>
  </g>
</svg>
