<?xml version="1.0" encoding="UTF-8"?>
<svg xmlns="http://www.w3.org/2000/svg" width="847.019" height="1000" viewBox="0 0 847.019 1000">
  <g isolation="isolate">
    <g id="b" data-name="Layer 2">
      <g id="c" data-name="Layer 2">
        <g mix-blend-mode="multiply" opacity=".1">
          <path d="m763.141,107.883c-73.681-4.249-153.529-1.679-234.784,4.216,18.71-41.292,39.09-77.361,62.926-112.099h-27.067c-27.971,36.498-62.994,84.679-95.295,149.68,95.498-4.162,198.072-3.82,304.995,12.682-4.637-18.444-7.91-34.381-10.774-54.478Z" fill="#344563"/>
          <path d="m494.919,0c-38.828,37.215-79.64,80.115-120.323,128.791-92.419,12.394-180.532,30.918-273.112,54.338-11.775,12.015-15.615,16.07-23.431,24.768,92.7-23.383,204.18-44.348,323.409-53.753,30.768-52.493,84.158-118.965,115.751-154.144h-22.294Z" fill="#344563"/>
          <path d="m466.076,866.676c-45.326-204.496-40.638-415.579,9.314-605.552,136.169,12.128,264.074,54.336,371.628,114.24-18.324-42.563-36.95-86.382-50.528-131.128-136.527-39.916-257.844-46.257-351.618-45.918-83.603,177.243-119.599,379.226-118.872,566.048,44.845,39.708,89.613,77.321,140.075,102.308Z" fill="#344563"/>
          <path d="m103.883,608.072c32.798,12.32,62.828,28.984,91.053,48.219,29.843-139.006,86.101-297.125,178.784-456.34-131.149,8.29-230.597,27.272-337.248,55.201-17.398,19.88-27.697,33.43-36.472,44.807,107.488-28.514,196.345-38.968,278.356-43.601-72.527,108.212-131.16,220.887-174.473,351.714Z" fill="#344563"/>
          <g>
            <path d="m326.76,799.703c1.064,37.233,3.444,74.826,7.421,112.756,49.339,38.419,103.516,71.334,168.813,87.542-10.438-31.191-19.765-62.66-27.732-94.345-53.959-24.701-101.217-64.106-148.502-105.952Z" fill="#344563"/>
            <path d="m93.508,639.046c-7.977,26.094-15.254,52.717-21.715,79.916,36.967,13.448,70.612,34.242,102.953,58.807,3.719-30.534,8.514-60.804,14.254-90.737-29.471-19.537-60.928-36.209-95.492-47.987Z" fill="#344563"/>
          </g>
        </g>
      </g>
    </g>
  </g>
</svg>